<?xml version="1.0" encoding="UTF-8" standalone="no"?>
<!-- Created with Inkscape (http://www.inkscape.org/) -->

<svg
   version="1.1"
   id="svg4986"
   xml:space="preserve"
   width="682.66669"
   height="682.66669"
   viewBox="0 0 682.66669 682.66669"
   xmlns="http://www.w3.org/2000/svg"
   xmlns:svg="http://www.w3.org/2000/svg"><defs
     id="defs4990"><clipPath
       clipPathUnits="userSpaceOnUse"
       id="clipPath5000"><path
         d="M 0,512 H 512 V 0 H 0 Z"
         id="path4998" /></clipPath></defs><g
     id="g4992"
     transform="matrix(1.3333333,0,0,-1.3333333,0,682.66667)"><g
       id="g4994"><g
         id="g4996"
         clip-path="url(#clipPath5000)"><g
           id="g5002"
           transform="translate(143.1494,223.5918)"><path
             d="m 0,0 -35.546,-28.402 -1.899,-1.53 c -10.177,-8.098 -11.821,-23.05 -3.714,-33.187 8.107,-10.138 23.046,-11.78 33.193,-3.71 l 0.029,0.028 37.445,29.932 0.057,0.028 h 0.029 c 10.091,8.127 11.735,23.022 3.628,33.131 C 25.086,6.456 10.147,8.099 0,0"
             style="fill:#ffd0c7;fill-opacity:1;fill-rule:evenodd;stroke:none"
             id="path5004" /></g><g
           id="g5006"
           transform="translate(172.6572,186.7227)"><path
             d="m 0,0 -37.445,-29.932 -0.029,-0.028 c -10.119,-8.099 -11.792,-23.022 -3.656,-33.16 8.108,-10.137 23.046,-11.808 33.222,-3.681 l 37.445,29.904 16.47,13.167 c 10.176,8.126 11.82,23.05 3.713,33.188 -8.108,10.138 -23.074,11.808 -33.222,3.709 L 0.086,0.028 C 0.058,0.028 0.028,0 0,0 m -37.474,-29.96 z"
             style="fill:#ffd0c7;fill-opacity:1;fill-rule:evenodd;stroke:none"
             id="path5008" /></g><g
           id="g5010"
           transform="translate(202.1943,149.8252)"><path
             d="m 0,0 -37.445,-29.903 c -10.176,-8.127 -11.821,-23.051 -3.713,-33.189 8.106,-10.165 23.073,-11.807 33.221,-3.709 l 20.976,16.764 16.47,13.168 c 10.176,8.098 11.82,23.05 3.713,33.187 C 25.087,6.456 10.148,8.127 0,0"
             style="fill:#ffd0c7;fill-opacity:1;fill-rule:evenodd;stroke:none"
             id="path5012" /></g><g
           id="g5014"
           transform="translate(215.2334,99.7881)"><path
             d="m 0,0 -20.976,-16.764 c -10.148,-8.098 -11.82,-23.05 -3.685,-33.188 8.107,-10.137 23.046,-11.808 33.222,-3.681 l 20.948,16.764 c 3.912,3.087 6.548,7.221 7.88,11.667 2.126,7.192 0.822,15.263 -4.167,21.492 C 25.087,6.456 10.148,8.099 0,0"
             style="fill:#ffd0c7;fill-opacity:1;fill-rule:evenodd;stroke:none"
             id="path5016" /></g><g
           id="g5018"
           transform="translate(136.374,337.9365)"><path
             d="m 0,0 -64.714,-114.458 c 15.818,-4.531 29.594,-14.641 35.943,-28.289 l 35.546,28.402 c 10.148,8.099 25.086,6.456 33.222,-3.71 8.107,-10.109 6.463,-25.004 -3.628,-33.131 l 16.412,13.139 c 10.148,8.099 25.115,6.429 33.222,-3.709 8.107,-10.138 6.463,-25.061 -3.713,-33.188 l -16.47,-13.167 c 10.149,8.127 25.087,6.456 33.222,-3.682 8.107,-10.138 6.463,-25.089 -3.713,-33.187 l -16.47,-13.168 c 10.149,8.098 25.087,6.456 33.222,-3.71 4.989,-6.23 6.293,-14.3 4.167,-21.493 l 21.09,-16.848 c 10.148,-8.1 25.087,-6.457 33.222,3.709 8.107,10.137 6.434,25.061 -3.713,33.188 l 14.512,-11.61 c 10.149,-8.099 25.116,-6.456 33.222,3.709 8.136,10.138 6.463,25.061 -3.685,33.188 10.148,-8.127 25.086,-6.456 33.222,3.681 8.108,10.138 6.435,25.062 -3.713,33.188 10.148,-8.126 25.115,-6.456 33.222,3.682 8.135,10.137 6.463,25.089 -3.686,33.188 l -1.899,1.529 -30.557,24.409 c -15.76,12.573 -33.562,26.505 -50.456,38.625 -30.557,21.89 -45.609,36.444 -83.905,28.742 -28.941,-5.834 -52.355,3.002 -58.45,28.063 -0.907,3.765 -0.85,7.079 0.085,9.939 z"
             style="fill:#ffdcd5;fill-opacity:1;fill-rule:evenodd;stroke:none"
             id="path5020" /></g><g
           id="g5022"
           transform="translate(261.4102,344.9316)"><path
             d="m 0,0 -43.37,-3.88 c -20.835,-1.841 -33.761,-6.683 -36.907,-16.084 -0.935,-2.86 -0.993,-6.174 -0.085,-9.939 6.094,-25.061 29.508,-33.897 58.45,-28.063 38.296,7.702 53.348,-6.852 83.905,-28.742 16.894,-12.12 34.695,-26.052 50.456,-38.625 l 30.557,-24.409 c 6.321,13.648 20.098,23.758 35.915,28.289 L 114.264,-7.137 87.391,-14.924 c -18.397,-5.323 -16.016,-3.68 -33.703,2.492 L 27.523,-3.285 C 13.662,1.557 8.561,0.765 0,0"
             style="fill:#ffd0c7;fill-opacity:1;fill-rule:evenodd;stroke:none"
             id="path5024" /></g><g
           id="g5026"
           transform="translate(370.0889,347.7061)"><path
             d="m 0,0 5.585,-9.911 64.657,-114.317 6.974,-12.346 c 4.024,-7.108 13.152,-9.6 20.324,-5.635 l 26.787,14.838 c 1.53,0.85 2.862,1.926 3.94,3.2 4.025,4.615 4.876,11.496 1.729,17.104 l -1.729,3.002 -75.514,133.544 c -4.025,7.135 -13.125,9.599 -20.296,5.635 L 5.642,20.275 C -1.53,16.312 -4.053,7.137 0,0"
             style="fill:#a0c8ff;fill-opacity:1;fill-rule:evenodd;stroke:none"
             id="path5028" /></g><g
           id="g5030"
           transform="translate(89.1494,377.1846)"><path
             d="m 0,0 -77.215,-136.546 c -4.054,-7.136 -1.53,-16.339 5.641,-20.304 l 26.787,-14.837 c 7.172,-3.965 16.3,-1.473 20.324,5.634 l 6.974,12.347 64.714,114.458 5.528,9.769 c 4.053,7.137 1.53,16.312 -5.642,20.276 L 20.324,5.636 C 13.153,9.6 4.025,7.136 0,0"
             style="fill:#ff9eb1;fill-opacity:1;fill-rule:evenodd;stroke:none"
             id="path5032" /></g><g
           id="g5034"
           transform="translate(172.6572,186.7227)"><path
             d="m 0,0 c 10.177,8.099 11.821,23.021 3.714,33.159 -8.136,10.166 -23.074,11.809 -33.222,3.71 L -66.953,6.937 c -10.177,-8.098 -11.82,-23.05 -3.714,-33.187 8.107,-10.138 23.074,-11.809 33.222,-3.682"
             style="fill:none;stroke:#000000;stroke-width:20.176;stroke-linecap:round;stroke-linejoin:round;stroke-miterlimit:10;stroke-dasharray:none;stroke-opacity:1"
             id="path5036" /></g><g
           id="g5038"
           transform="translate(164.749,119.9219)"><path
             d="M 0,0 C -10.176,-8.127 -11.82,-23.051 -3.713,-33.188 4.394,-43.354 19.36,-44.996 29.509,-36.897 L 66.954,-6.966 C 77.13,1.133 78.774,16.084 70.667,26.222 62.532,36.359 47.594,38.03 37.445,29.903"
             style="fill:none;stroke:#000000;stroke-width:20.176;stroke-linecap:round;stroke-linejoin:round;stroke-miterlimit:10;stroke-dasharray:none;stroke-opacity:1"
             id="path5040" /></g><g
           id="g5042"
           transform="translate(194.2578,83.0244)"><path
             d="m 0,0 c -10.148,-8.099 -11.82,-23.051 -3.686,-33.188 8.108,-10.137 23.046,-11.808 33.222,-3.681 l 20.948,16.764 c 10.148,8.098 11.821,23.022 3.713,33.159 -8.134,10.166 -23.073,11.808 -33.221,3.71"
             style="fill:none;stroke:#000000;stroke-width:20.176;stroke-linecap:round;stroke-linejoin:round;stroke-miterlimit:10;stroke-dasharray:none;stroke-opacity:1"
             id="path5044" /></g><g
           id="g5046"
           transform="translate(350.0205,178.1709)"><path
             d="m 0,0 26.759,-21.38 c 10.147,-8.127 11.82,-23.051 3.713,-33.188 C 22.336,-64.705 7.397,-66.376 -2.75,-58.249 l -29.026,23.163"
             style="fill:none;stroke:#000000;stroke-width:20.176;stroke-linecap:round;stroke-linejoin:round;stroke-miterlimit:10;stroke-dasharray:none;stroke-opacity:1"
             id="path5048" /></g><g
           id="g5050"
           transform="translate(318.2441,143.085)"><path
             d="M 0,0 29.026,-23.163 C 39.174,-31.29 40.847,-46.214 32.711,-56.352 24.604,-66.517 9.638,-68.159 -0.511,-60.061 l -28.998,23.192"
             style="fill:none;stroke:#000000;stroke-width:20.176;stroke-linecap:round;stroke-linejoin:round;stroke-miterlimit:10;stroke-dasharray:none;stroke-opacity:1"
             id="path5052" /></g><g
           id="g5054"
           transform="translate(288.7354,106.2158)"><path
             d="m 0,0 14.485,-11.581 c 10.148,-8.127 11.821,-23.051 3.713,-33.189 -8.135,-10.166 -23.073,-11.808 -33.221,-3.709 l -21.09,16.849"
             style="fill:none;stroke:#000000;stroke-width:20.176;stroke-linecap:round;stroke-linejoin:round;stroke-miterlimit:10;stroke-dasharray:none;stroke-opacity:1"
             id="path5056" /></g><g
           id="g5058"
           transform="translate(482.709,271.335)"><path
             d="M 0,0 17.376,-30.696 C 21.401,-37.832 18.878,-47.035 11.707,-51 L -15.08,-65.838 c -7.172,-3.965 -16.3,-1.473 -20.324,5.635 L -112.62,76.371 c -4.053,7.137 -1.53,16.312 5.641,20.275 l 26.816,14.839 c 7.171,3.964 16.27,1.5 20.296,-5.635 l 15.675,-27.695"
             style="fill:none;stroke:#000000;stroke-width:20.176;stroke-linecap:round;stroke-linejoin:round;stroke-miterlimit:10;stroke-dasharray:none;stroke-opacity:1"
             id="path5060" /></g><g
           id="g5062"
           transform="translate(404.416,195.1895)"><path
             d="M 0,0 C 6.321,13.648 20.098,23.758 35.915,28.289"
             style="fill:none;stroke:#000000;stroke-width:20.176;stroke-linecap:round;stroke-linejoin:round;stroke-miterlimit:10;stroke-dasharray:none;stroke-opacity:1"
             id="path5064" /></g><g
           id="g5066"
           transform="translate(376.7793,156.791)"><path
             d="m 0,0 c 10.147,-8.127 25.114,-6.456 33.222,3.682 8.134,10.136 6.463,25.089 -3.686,33.187 L -2.92,62.808 c -15.761,12.573 -33.562,26.505 -50.456,38.625 -30.558,21.889 -45.609,36.444 -83.905,28.742 -28.942,-5.834 -52.356,3.002 -58.45,28.062 -3.912,16.113 9.807,23.617 36.992,26.024 l 43.37,3.88 c 8.56,0.764 13.662,1.556 27.523,-3.286 l 26.164,-9.146 c 17.688,-6.173 15.307,-7.815 33.703,-2.492 l 26.874,7.787"
             style="fill:none;stroke:#000000;stroke-width:20.176;stroke-linecap:round;stroke-linejoin:round;stroke-miterlimit:10;stroke-dasharray:none;stroke-opacity:1"
             id="path5068" /></g><g
           id="g5070"
           transform="translate(136.2607,367.9814)"><path
             d="m 0,0 -26.787,14.839 c -7.171,3.964 -16.299,1.5 -20.324,-5.636 l -77.215,-136.546 c -4.054,-7.136 -1.53,-16.339 5.64,-20.303 l 26.788,-14.838 c 7.171,-3.965 16.299,-1.473 20.324,5.634 L 5.642,-20.275 C 9.694,-13.139 7.172,-3.964 0,0 Z"
             style="fill:none;stroke:#000000;stroke-width:20.176;stroke-linecap:round;stroke-linejoin:round;stroke-miterlimit:10;stroke-dasharray:none;stroke-opacity:1"
             id="path5072" /></g><g
           id="g5074"
           transform="translate(181.1328,324.9678)"><path
             d="M 0,0 -44.759,12.969"
             style="fill:none;stroke:#000000;stroke-width:20.176;stroke-linecap:round;stroke-linejoin:round;stroke-miterlimit:10;stroke-dasharray:none;stroke-opacity:1"
             id="path5076" /></g><g
           id="g5078"
           transform="translate(107.6035,195.1895)"><path
             d="M 0,0 C -6.35,13.648 -20.126,23.758 -35.943,28.289"
             style="fill:none;stroke:#000000;stroke-width:20.176;stroke-linecap:round;stroke-linejoin:round;stroke-miterlimit:10;stroke-dasharray:none;stroke-opacity:1"
             id="path5080" /></g><g
           id="g5082"
           transform="translate(255.9951,420.0576)"><path
             d="M 0,0 V 50.942"
             style="fill:none;stroke:#000000;stroke-width:20.176;stroke-linecap:round;stroke-linejoin:round;stroke-miterlimit:10;stroke-dasharray:none;stroke-opacity:1"
             id="path5084" /></g><g
           id="g5086"
           transform="translate(189.2686,398.9609)"><path
             d="M 0,0 -26.646,42.277"
             style="fill:none;stroke:#000000;stroke-width:20.176;stroke-linecap:round;stroke-linejoin:round;stroke-miterlimit:10;stroke-dasharray:none;stroke-opacity:1"
             id="path5088" /></g><g
           id="g5090"
           transform="translate(322.751,398.9609)"><path
             d="M 0,0 26.617,42.277"
             style="fill:none;stroke:#000000;stroke-width:20.176;stroke-linecap:round;stroke-linejoin:round;stroke-miterlimit:10;stroke-dasharray:none;stroke-opacity:1"
             id="path5092" /></g><g
           id="g5094"
           transform="translate(135.2119,156.791)"><path
             d="M 0,0 53.943,43.099 C 64.091,51.197 79.058,49.527 87.165,39.39 95.272,29.252 93.628,14.328 83.452,6.201 L 29.537,-36.869 C 19.361,-44.996 4.423,-43.325 -3.685,-33.188 -11.82,-23.051 -10.147,-8.127 0,0 Z"
             style="fill:none;stroke:#000000;stroke-width:20.176;stroke-linecap:round;stroke-linejoin:round;stroke-miterlimit:10;stroke-dasharray:none;stroke-opacity:1"
             id="path5096" /></g><g
           id="g5098"
           transform="translate(460.5703,310.3838)"><path
             d="M 0,0 V 0.028"
             style="fill:none;stroke:#000000;stroke-width:20.176;stroke-linecap:round;stroke-linejoin:round;stroke-miterlimit:10;stroke-dasharray:none;stroke-opacity:1"
             id="path5100" /></g></g></g></g></svg>
