<svg id="Capa_1" enable-background="new 0 0 512 512" height="512" viewBox="0 0 512 512" width="512" xmlns="http://www.w3.org/2000/svg"><g><g><path d="m162.408 238.788-12.042-133.511h-49.518l-13.792 152.913z" fill="#e6e2e6"/><path d="m291.888 205.448-11.513-127.653h-49.517l-13.239 146.777z" fill="#e6e2e6"/><path d="m421.369 172.109-10.985-121.797h-49.517l-12.685 140.642z" fill="#e6e2e6"/><path d="m488.556 461.688h-465.112c-8.53 0-15.444-6.915-15.444-15.444 0-8.53 6.915-15.444 15.444-15.444h465.112c8.53 0 15.444 6.915 15.444 15.444 0 8.53-6.915 15.444-15.444 15.444z" fill="#7b7179"/><path d="m488.556 461.688h-465.112c-8.53 0-15.444-6.915-15.444-15.444 0-8.53 6.915-15.444 15.444-15.444h465.112c8.53 0 15.444 6.915 15.444 15.444 0 8.53-6.915 15.444-15.444 15.444z" fill="#7b7179"/><path d="m488.556 446.244h-465.112c-5.713 0-10.69-3.11-13.361-7.722-1.317 2.273-2.083 4.905-2.083 7.722 0 8.53 6.915 15.444 15.444 15.444h465.111c8.53 0 15.444-6.915 15.444-15.444 0-2.816-.766-5.449-2.083-7.722-2.67 4.612-7.647 7.722-13.36 7.722z" fill="#726a71"/><path d="m466.594 430.8h-425.614v-160.746l425.614-109.59z" fill="#cac0c9"/><path d="m87.056 258.19 75.352-19.402-1.587-17.592-72.103 18.566z" fill="#d8d1d7"/><path d="m348.182 190.954 73.187-18.845-1.586-17.592-69.939 18.009z" fill="#d8d1d7"/><path d="m217.619 224.572 74.269-19.124-1.586-17.591-71.021 18.287z" fill="#d8d1d7"/><path d="m40.98 412.8h425.614v18h-425.614z" fill="#bbb0ba"/><path d="m91.52 312.53h98.553v118.27h-98.553z" fill="#60b8ff"/><path d="m91.52 412.8h98.552v18h-98.552z" fill="#22a7ff"/><g fill="#ffe55a"><path d="m247.04 270.594h29.954v37.405h-29.954z" transform="matrix(-1 0 0 -1 524.033 578.593)"/><path d="m247.04 347.156h29.954v37.405h-29.954z" transform="matrix(-1 0 0 -1 524.033 731.717)"/><path d="m322.965 270.594h29.954v37.405h-29.954z" transform="matrix(-1 0 0 -1 675.884 578.593)"/><path d="m322.965 347.156h29.954v37.405h-29.954z" transform="matrix(-1 0 0 -1 675.884 731.717)"/><path d="m398.89 270.594h29.954v37.405h-29.954z" transform="matrix(-1 0 0 -1 827.734 578.593)"/><path d="m398.89 347.156h29.954v37.405h-29.954z" transform="matrix(-1 0 0 -1 827.734 731.717)"/></g><path d="m153.593 141.06-3.227-35.783h-49.518l-3.227 35.783z" fill="#ff4755"/><path d="m283.602 113.577-3.227-35.782h-49.517l-3.228 35.782z" fill="#ff4755"/><path d="m413.612 86.094-3.228-35.782h-49.517l-3.228 35.782z" fill="#ff4755"/><path d="m413.612 86.094-3.228-35.782h-49.517l-3.228 35.782z" fill="#ff4755"/></g><g><path d="m489.011 423.627h-14.49v-112.888c0-4.15-3.364-7.515-7.515-7.515s-7.515 3.365-7.515 7.515v112.888h-262.033v-110.986c0-4.15-3.364-7.515-7.515-7.515h-98.745c-4.151 0-7.515 3.365-7.515 7.515v110.986h-35.609v-147.721l411.417-105.934v110.708c0 4.15 3.364 7.515 7.515 7.515s7.515-3.365 7.515-7.515v-120.403c0-2.323-1.074-4.516-2.911-5.939-1.837-1.424-4.229-1.915-6.477-1.338l-36.75 9.462-6.987-77.464c0-.002-.001-.005-.001-.007l-3.225-35.757c-.349-3.873-3.596-6.84-7.484-6.84h-49.614c-3.888 0-7.135 2.967-7.484 6.84l-3.225 35.759v.001l-9.008 99.877-42.705 10.996-7.516-83.334c0-.002 0-.003 0-.004l-3.225-35.758c-.349-3.873-3.596-6.84-7.484-6.84h-49.615c-3.888 0-7.135 2.967-7.484 6.84l-3.225 35.757c0 .002 0 .004-.001.007l-9.562 106.021-41.622 10.717-8.046-89.202c0-.002 0-.003 0-.005l-3.225-35.757c-.349-3.873-3.596-6.84-7.484-6.84h-49.613c-3.888 0-7.135 2.967-7.484 6.84l-6.91 76.606c-.373 4.134 2.676 7.787 6.809 8.16 4.136.374 7.787-2.676 8.16-6.809l3.059-33.914h42.347l7.641 84.72-58.999 15.191 3.25-36.028c.373-4.134-2.676-7.787-6.809-8.16-4.135-.368-7.787 2.677-8.16 6.809l-3.73 41.356-41.032 10.565c-3.32.855-5.641 3.849-5.641 7.277v153.546h-10.06c-12.676-.001-22.989 10.312-22.989 22.988s10.313 22.989 22.989 22.989h220.762c4.151 0 7.515-3.365 7.515-7.515s-3.364-7.515-7.515-7.515h-220.762c-4.389 0-7.96-3.57-7.96-7.959s3.57-7.96 7.96-7.96h466.022c4.332 0 7.96 3.628 7.96 7.96s-3.628 7.959-7.96 7.959h-215.201c-4.151 0-7.515 3.365-7.515 7.515s3.364 7.515 7.515 7.515h215.201c12.676 0 22.989-10.313 22.989-22.989s-10.313-22.989-22.989-22.989zm-383.477-290.307 1.878-20.823h35.88l1.878 20.823zm298.285-75.896 1.878 20.823h-39.636l1.878-20.823zm-39.113 35.852h42.347l6.582 72.983-56.831 14.633zm-91.15-8.316 1.878 20.823h-39.637l1.878-20.823zm-39.115 35.853h42.348l7.112 78.851-57.916 14.913zm-135.729 199.343h83.716v103.472h-83.716z"/><path d="m284.549 270.622c0-4.15-3.364-7.515-7.515-7.515h-30.012c-4.151 0-7.515 3.365-7.515 7.515v37.478c0 4.15 3.364 7.515 7.515 7.515h30.012c4.151 0 7.515-3.365 7.515-7.515zm-15.029 29.964h-14.982v-22.449h14.982z"/><path d="m277.034 339.819h-30.012c-4.151 0-7.515 3.365-7.515 7.515v37.478c0 4.15 3.364 7.515 7.515 7.515h30.012c4.151 0 7.515-3.365 7.515-7.515v-37.478c0-4.15-3.364-7.515-7.515-7.515zm-7.514 37.479h-14.982v-22.449h14.982z"/><path d="m360.623 270.622c0-4.15-3.364-7.515-7.515-7.515h-30.013c-4.151 0-7.515 3.365-7.515 7.515v37.478c0 4.15 3.364 7.515 7.515 7.515h30.013c4.151 0 7.515-3.365 7.515-7.515zm-15.029 29.964h-14.983v-22.449h14.983z"/><path d="m353.109 339.819h-30.013c-4.151 0-7.515 3.365-7.515 7.515v37.478c0 4.15 3.364 7.515 7.515 7.515h30.013c4.151 0 7.515-3.365 7.515-7.515v-37.478c-.001-4.15-3.365-7.515-7.515-7.515zm-7.515 37.479h-14.983v-22.449h14.983z"/><path d="m436.697 270.622c0-4.15-3.364-7.515-7.515-7.515h-30.012c-4.151 0-7.515 3.365-7.515 7.515v37.478c0 4.15 3.364 7.515 7.515 7.515h30.012c4.151 0 7.515-3.365 7.515-7.515zm-15.03 29.964h-14.982v-22.449h14.982z"/><path d="m429.182 339.819h-30.012c-4.151 0-7.515 3.365-7.515 7.515v37.478c0 4.15 3.364 7.515 7.515 7.515h30.012c4.151 0 7.515-3.365 7.515-7.515v-37.478c0-4.15-3.364-7.515-7.515-7.515zm-7.515 37.479h-14.982v-22.449h14.982z"/></g></g></svg>