<svg id="Layer_1" viewBox="0 0 512 512" xmlns="http://www.w3.org/2000/svg" data-name="Layer 1"><path d="m91.86 7.005h328.28a16.743 16.743 0 0 1 16.7 16.7v464.595a16.744 16.744 0 0 1 -16.7 16.7h-328.28a16.744 16.744 0 0 1 -16.7-16.7v-464.6a16.743 16.743 0 0 1 16.7-16.7z" fill="#d5e3f2" fill-rule="evenodd"/><path d="m75.164 171.896h361.672v168.208h-361.672z" fill="#b7cfe8"/><path d="m108.726 40.737h97.455v97.455h-97.455z" fill="#ffab02"/><path d="m113.545 207.272h104.06v32.485h-104.06z" fill="#69a7ff"/><path d="m294.395 207.272h104.06v32.485h-104.06z" fill="#fb4455"/><path d="m419.857 23.7v148.2h16.979v-148.2a16.743 16.743 0 0 0 -16.7-16.7h-16.947a16.737 16.737 0 0 1 16.668 16.7z" fill="#b7cfe8" fill-rule="evenodd"/><path d="m419.857 171.896h16.979v168.208h-16.979z" fill="#9fb7d1"/><g fill-rule="evenodd"><path d="m436.836 340.1h-16.979v148.2a16.738 16.738 0 0 1 -16.668 16.7h16.951a16.744 16.744 0 0 0 16.7-16.7z" fill="#b7cfe8"/><path d="m188.946 123.991h-80.22v14.201h97.455v-97.455h-17.235z" fill="#ed9e00"/><path d="m206.266 229.439h-92.721v10.318h104.06v-32.485h-11.339z" fill="#4c8fed"/><path d="m387.116 229.439h-92.721v10.318h104.06v-32.485h-11.339z" fill="#e82e41"/></g><path d="m420.17 0h-328.312a23.725 23.725 0 0 0 -23.7 23.7v464.6a23.725 23.725 0 0 0 23.7 23.7h328.312a23.71 23.71 0 0 0 23.669-23.7v-464.6a23.71 23.71 0 0 0 -23.669-23.7zm-338.006 178.9h166.849v154.2h-166.849zm347.672 309.4a9.691 9.691 0 0 1 -9.666 9.7h-328.312a9.705 9.705 0 0 1 -9.694-9.694v-141.199h347.672zm0-155.2h-166.82v-154.2h166.82zm0-168.21h-347.672v-141.19a9.705 9.705 0 0 1 9.694-9.7h328.312a9.691 9.691 0 0 1 9.666 9.694zm-197.066 265.783v-52.045a7 7 0 1 1 14 0v52.045a7 7 0 1 1 -14 0zm64.971 0v-52.045a7 7 0 1 1 14 0v52.045a7 7 0 1 1 -14 0zm-32.486 0v-52.045a7 7 0 1 1 14 0v52.045a7 7 0 1 1 -14 0zm-64.97 0v-52.045a7 7 0 1 1 14 0v52.045a7 7 0 1 1 -14 0zm-64.971 0v-52.045a7 7 0 1 1 14 0v52.045a7 7 0 1 1 -14 0zm82.319-230.4h-104.09a7 7 0 0 0 -7 7v32.485a7 7 0 0 0 7 7h104.09a7 7 0 0 0 7-7v-32.486a7 7 0 0 0 -7-7.002zm-7 32.485h-90.088v-18.484h90.086zm14 71.973a7 7 0 0 1 -7 7h-69.365a7 7 0 0 1 0-14h69.365a7 7 0 0 1 7.001 6.997zm-92.382-32.485a7 7 0 0 1 -7 7h-11.708a7 7 0 0 1 0-14h11.708a7 7 0 0 1 7.001 6.997zm0 32.485a7 7 0 0 1 -7 7h-11.708a7 7 0 0 1 0-14h11.708a7 7 0 0 1 7.001 6.997zm3.062 161.718a7 7 0 0 1 7-7h227.4a7 7 0 0 1 0 14h-227.4a7 7 0 0 1 -6.999-7.003zm259.887-35.776v-52.045a7 7 0 1 1 14 0v52.045a7 7 0 1 1 -14 0zm-32.486 0v-52.045a7 7 0 1 1 14 0v52.045a7 7 0 1 1 -14 0zm-138.08-158.43a7 7 0 0 1 -7 7h-69.366a7 7 0 0 1 0-14h69.365a7 7 0 0 1 7.001 7zm185.643-134.081a7 7 0 0 1 -7 7h-43.769a7 7 0 0 1 0-14h43.768a7 7 0 0 1 7.001 7zm-66.785 0a7 7 0 0 1 -7 7h-97.457a7 7 0 0 1 0-14h97.456a7 7 0 0 1 7.001 7zm-111.459-32.484a7 7 0 0 1 7-7h54.028a7 7 0 1 1 0 14h-54.026a7 7 0 0 1 -7.002-7zm-25.824-71.978h-97.456a7 7 0 0 0 -7 7v97.456a7 7 0 0 0 7 7h97.456a7 7 0 0 0 7-7v-97.45a7 7 0 0 0 -7-7.006zm-7 97.456h-83.455v-83.448h83.454zm211.068-90.45a7 7 0 0 1 -7 7h-127.477a7 7 0 0 1 0-14h127.476a7 7 0 0 1 7.001 7zm0 64.972a7 7 0 0 1 -7 7h-87.196a7 7 0 0 1 0-14h87.2a7 7 0 0 1 6.996 7zm0-32.486a7 7 0 0 1 -7 7h-20.75a7 7 0 0 1 0-14h20.75a7 7 0 0 1 7 7zm-115.877 173.567h104.057a7 7 0 0 0 7-7v-32.487a7 7 0 0 0 -7-7h-104.057a7 7 0 0 0 -7 7v32.485a7 7 0 0 0 7 7.002zm7-32.485h90.058v18.481h-90.058zm-69.367-141.082a7 7 0 0 1 7-7h120.475a7 7 0 1 1 0 14h-120.473a7 7 0 0 1 -7.002-7zm173.425 231.536a7 7 0 0 1 -7 7h-69.366a7 7 0 0 1 0-14h69.365a7 7 0 0 1 7.001 7zm-302.63 125.945v-52.045a7 7 0 1 1 14 0v52.045a7 7 0 0 1 -14 0zm302.63-158.43a7 7 0 0 1 -7 7h-69.366a7 7 0 0 1 0-14h69.365a7 7 0 0 1 7.001 7zm-173.425-231.537a7 7 0 0 1 7-7h13.748a7 7 0 0 1 0 14h-13.746a7 7 0 0 1 -7.002-7zm55.361 231.537a7 7 0 0 1 7-7h11.678a7 7 0 0 1 0 14h-11.672a7 7 0 0 1 -7.006-7zm0 32.485a7 7 0 0 1 7-7h11.678a7 7 0 0 1 0 14h-11.672a7 7 0 0 1 -7.006-7z"/></svg>