<?xml version="1.0" encoding="UTF-8" standalone="no"?>
<!-- Created with Inkscape (http://www.inkscape.org/) -->

<svg
   version="1.1"
   id="svg645"
   xml:space="preserve"
   width="682.66669"
   height="682.66669"
   viewBox="0 0 682.66669 682.66669"
   xmlns="http://www.w3.org/2000/svg"
   xmlns:svg="http://www.w3.org/2000/svg"><defs
     id="defs649"><clipPath
       clipPathUnits="userSpaceOnUse"
       id="clipPath661"><path
         d="M 0,512 H 512 V 0 H 0 Z"
         id="path659" /></clipPath></defs><g
     id="g651"
     transform="matrix(1.3333333,0,0,-1.3333333,0,682.66667)"><path
       d="M 437.829,7.5 H 74.171 v 497 h 363.658 z"
       style="fill:#ecf4ff;fill-opacity:1;fill-rule:nonzero;stroke:none"
       id="path653" /><g
       id="g655"><g
         id="g657"
         clip-path="url(#clipPath661)"><g
           id="g663"
           transform="translate(307.2891,102.645)"><path
             d="M 0,0 C -77.01,-50.98 -158.062,-82.873 -232.02,-95.145 H 130.54 V 113.052 C 94.973,72.412 50.991,33.755 0,0"
             style="fill:#cbe2ff;fill-opacity:1;fill-rule:nonzero;stroke:none"
             id="path665" /></g><g
           id="g667"
           transform="translate(157.0039,356.0059)"><path
             d="m 0,0 v 50.508 c -27.895,0 -50.508,-22.613 -50.508,-50.508 0,-27.895 22.613,-50.508 50.508,-50.508 27.896,0 50.508,22.613 50.508,50.508 z"
             style="fill:#e49542;fill-opacity:1;fill-rule:nonzero;stroke:none"
             id="path669" /></g><g
           id="g671"
           transform="translate(157.0039,406.5142)"><path
             d="M 0,0 V -50.508 H 50.508 C 50.508,-22.613 27.896,0 0,0"
             style="fill:#c8ea73;fill-opacity:1;fill-rule:nonzero;stroke:none"
             id="path673" /></g><path
           d="m 175.187,439.85 h 161.627 v 32.325 H 175.187 Z"
           style="fill:#4073c8;fill-opacity:1;fill-rule:nonzero;stroke:none"
           id="path675" /><path
           d="m 110.536,39.825 h 48.488 V 72.15 h -48.488 z"
           style="fill:#4073c8;fill-opacity:1;fill-rule:nonzero;stroke:none"
           id="path677" /><path
           d="m 191.35,39.825 h 48.487 v 80.813 H 191.35 Z"
           style="fill:#e49542;fill-opacity:1;fill-rule:nonzero;stroke:none"
           id="path679" /><g
           id="g681"
           transform="translate(239.8369,63.2822)"><path
             d="m 0,0 c -16.16,-8.226 -32.354,-15.636 -48.487,-22.223 v -1.234 H 0 Z"
             style="fill:#e28424;fill-opacity:1;fill-rule:nonzero;stroke:none"
             id="path683" /></g><path
           d="M 272.163,39.825 H 320.65 V 181.248 H 272.163 Z"
           style="fill:#dd5790;fill-opacity:1;fill-rule:nonzero;stroke:none"
           id="path685" /><g
           id="g687"
           transform="translate(320.6504,111.7397)"><path
             d="M 0,0 C -4.405,-3.064 -8.846,-6.105 -13.361,-9.095 -24.99,-16.793 -36.713,-24.048 -48.487,-30.874 V -71.915 H 0 Z"
             style="fill:#da387d;fill-opacity:1;fill-rule:nonzero;stroke:none"
             id="path689" /></g><path
           d="m 352.976,39.825 h 48.488 v 181.829 h -48.488 z"
           style="fill:#c8ea73;fill-opacity:1;fill-rule:nonzero;stroke:none"
           id="path691" /><g
           id="g693"
           transform="translate(401.4639,177.7007)"><path
             d="m 0,0 c -15.097,-14.474 -31.278,-28.552 -48.488,-42.08 v -95.795 H 0 Z"
             style="fill:#b7e445;fill-opacity:1;fill-rule:nonzero;stroke:none"
             id="path695" /></g><g
           id="g697"
           transform="translate(74.1699,148.2402)"><path
             d="M 0,0 V 356.26 H 363.66 V 301.61"
             style="fill:none;stroke:#000000;stroke-width:15;stroke-linecap:round;stroke-linejoin:round;stroke-miterlimit:10;stroke-dasharray:none;stroke-opacity:1"
             id="path699" /></g><g
           id="g701"
           transform="translate(437.8301,414.8501)"><path
             d="m 0,0 v -407.35 h -363.66 v 105.74"
             style="fill:none;stroke:#000000;stroke-width:15;stroke-linecap:round;stroke-linejoin:round;stroke-miterlimit:10;stroke-dasharray:none;stroke-opacity:1"
             id="path703" /></g><g
           id="g705"
           transform="translate(157.0039,406.5142)"><path
             d="M 0,0 V -50.508 H 50.508"
             style="fill:none;stroke:#000000;stroke-width:15;stroke-linecap:round;stroke-linejoin:round;stroke-miterlimit:10;stroke-dasharray:none;stroke-opacity:1"
             id="path707" /></g><g
           id="g709"
           transform="translate(207.5117,356.0059)"><path
             d="m 0,0 c 0,-27.895 -22.612,-50.508 -50.508,-50.508 -27.894,0 -50.508,22.613 -50.508,50.508 0,27.895 22.614,50.508 50.508,50.508 C -22.612,50.508 0,27.895 0,0 Z"
             style="fill:none;stroke:#000000;stroke-width:15;stroke-linecap:round;stroke-linejoin:round;stroke-miterlimit:10;stroke-dasharray:none;stroke-opacity:1"
             id="path711" /></g><path
           d="m 110.536,39.825 h 48.488 V 72.15 h -48.488 z"
           style="fill:none;stroke:#000000;stroke-width:15;stroke-linecap:round;stroke-linejoin:round;stroke-miterlimit:10;stroke-dasharray:none;stroke-opacity:1"
           id="path713" /><path
           d="m 191.35,39.825 h 48.487 v 80.813 H 191.35 Z"
           style="fill:none;stroke:#000000;stroke-width:15;stroke-linecap:round;stroke-linejoin:round;stroke-miterlimit:10;stroke-dasharray:none;stroke-opacity:1"
           id="path715" /><path
           d="M 272.163,39.825 H 320.65 V 181.248 H 272.163 Z"
           style="fill:none;stroke:#000000;stroke-width:15;stroke-linecap:round;stroke-linejoin:round;stroke-miterlimit:10;stroke-dasharray:none;stroke-opacity:1"
           id="path717" /><g
           id="g719"
           transform="translate(401.46,160.2002)"><path
             d="M 0,0 V -120.37 H -48.479 V 61.45 L 0,61.45 V 35"
             style="fill:none;stroke:#000000;stroke-width:15;stroke-linecap:round;stroke-linejoin:round;stroke-miterlimit:10;stroke-dasharray:none;stroke-opacity:1"
             id="path721" /></g><path
           d="m 175.187,439.85 h 161.627 v 32.325 H 175.187 Z"
           style="fill:none;stroke:#000000;stroke-width:15;stroke-linecap:round;stroke-linejoin:round;stroke-miterlimit:10;stroke-dasharray:none;stroke-opacity:1"
           id="path723" /><g
           id="g725"
           transform="translate(256,406.5142)"><path
             d="M 0,0 H 149.504"
             style="fill:none;stroke:#000000;stroke-width:15;stroke-linecap:round;stroke-linejoin:round;stroke-miterlimit:10;stroke-dasharray:none;stroke-opacity:1"
             id="path727" /></g><g
           id="g729"
           transform="translate(256,372.8423)"><path
             d="M 0,0 H 149.504"
             style="fill:none;stroke:#000000;stroke-width:15;stroke-linecap:round;stroke-linejoin:round;stroke-miterlimit:10;stroke-dasharray:none;stroke-opacity:1"
             id="path731" /></g><g
           id="g733"
           transform="translate(256,339.1699)"><path
             d="M 0,0 H 149.504"
             style="fill:none;stroke:#000000;stroke-width:15;stroke-linecap:round;stroke-linejoin:round;stroke-miterlimit:10;stroke-dasharray:none;stroke-opacity:1"
             id="path735" /></g><g
           id="g737"
           transform="translate(256,305.498)"><path
             d="M 0,0 H 88.895"
             style="fill:none;stroke:#000000;stroke-width:15;stroke-linecap:round;stroke-linejoin:round;stroke-miterlimit:10;stroke-dasharray:none;stroke-opacity:1"
             id="path739" /></g><g
           id="g741"
           transform="translate(119.6279,256)"><path
             d="M 0,0 H 136.372"
             style="fill:none;stroke:#000000;stroke-width:15;stroke-linecap:round;stroke-linejoin:round;stroke-miterlimit:10;stroke-dasharray:none;stroke-opacity:1"
             id="path743" /></g><g
           id="g745"
           transform="translate(119.6279,222.3281)"><path
             d="M 0,0 H 136.372"
             style="fill:none;stroke:#000000;stroke-width:15;stroke-linecap:round;stroke-linejoin:round;stroke-miterlimit:10;stroke-dasharray:none;stroke-opacity:1"
             id="path747" /></g><g
           id="g749"
           transform="translate(119.6279,188.6558)"><path
             d="M 0,0 H 75.763"
             style="fill:none;stroke:#000000;stroke-width:15;stroke-linecap:round;stroke-linejoin:round;stroke-miterlimit:10;stroke-dasharray:none;stroke-opacity:1"
             id="path751" /></g></g></g></g></svg>
