<svg height="512" viewBox="0 0 64 64" width="512" xmlns="http://www.w3.org/2000/svg"><g id="Building_Man" data-name="Building Man"><path d="m21 13c0-7.89844 5.75635-9.91846 6.00146-10.00049l.186-.062h9.625l.18754.06249c.24414.08154 6 2.10156 6 10z" fill="#f7c45c"/><path d="m29 13-2-11 1-1h8l1 1-2 11z" fill="#eaa224"/><path d="m22 13v6a10 10 0 0 0 20 0v-6z" fill="#ffcfd3"/><path d="m46 19.5a2.50091 2.50091 0 0 1 -2.5 2.5h-1.96a9.90653 9.90653 0 0 0 .46-3v-2h1.5a2.50091 2.50091 0 0 1 2.5 2.5z" fill="#e2b3b3"/><path d="m22.46 22h-1.96a2.5 2.5 0 0 1 0-5h1.5v2a9.90653 9.90653 0 0 0 .46 3z" fill="#e2b3b3"/><path d="m38 35-.63.32a12.00925 12.00925 0 0 1 -10.74 0l-.63-.32 1.33-7.16a9.98008 9.98008 0 0 0 9.34 0z" fill="#e2b3b3"/><path d="m11 63v-14a14 14 0 0 1 14-14h1l.63344.31672a12 12 0 0 0 10.73312 0l.63344-.31672h1a14 14 0 0 1 14 14v14z" fill="#5d5d66"/><path d="m19 49h26v15h-26z" fill="#eaa224"/><path d="m23 55h18v8h-18z" fill="#dd8717"/><path d="m11 54h8v9h-8z" fill="#ffcfd3"/><path d="m45 54h8v9h-8z" fill="#ffcfd3"/><rect fill="#f7c45c" height="4" rx="1" width="4" x="23" y="47"/><rect fill="#f7c45c" height="4" rx="1" width="4" x="37" y="47"/><g fill="#1e1e28"><path d="m55 64a1 1 0 0 0 0-2h-1v-13a15.01734 15.01734 0 0 0 -15-15h-.16852l-1.05188-5.65839a11.04634 11.04634 0 0 0 4.4564-5.34161h1.264a3.5 3.5 0 0 0 0-7h-.5v-2h2a1 1 0 0 0 0-2h-1.04675c-.39191-6.37219-4.40277-8.92035-5.99579-9.67865l.02594-.14264a.9958.9958 0 0 0 -.2764-.88571l-1-1a.99927.99927 0 0 0 -.707-.293h-8a1.00012 1.00012 0 0 0 -.707.293l-1 1a1.00016 1.00016 0 0 0 -.27686.88574l.02594.14282c-1.59335.75864-5.60348 3.30686-5.99533 9.67844h-1.04675a1 1 0 0 0 0 2h2v2h-.5a3.5 3.5 0 0 0 0 7h1.264a11.04633 11.04633 0 0 0 4.45685 5.34186l-1.05185 5.65814h-.169a15.017 15.017 0 0 0 -15 15v13h-1a1 1 0 0 0 0 2zm-14-10h-18a1 1 0 0 0 -1 1v7h-2v-12h2a2.0026 2.0026 0 0 0 2 2h2a2.0026 2.0026 0 0 0 2-2h8a2.0026 2.0026 0 0 0 2 2h2a2.0026 2.0026 0 0 0 2-2h2v12h-2v-7a1.00036 1.00036 0 0 0 -1-1zm-15-17.88171.186.09314a13.06752 13.06752 0 0 0 11.62744 0l.18656-.09327v9.88184a2.0026 2.0026 0 0 0 -2 2h-8a2.0026 2.0026 0 0 0 -2-2zm11.99951 12.87927-.00051-.99756h2.001v2h-2l-.00049-.99762.00049-.00238zm-11.99951-.99756v2h-2v-2zm20 7h6v7h-6zm6-6v4h-6v-8a1 1 0 0 0 -2 0v3h-2a2.0026 2.0026 0 0 0 -2-2v-9.94934a13.00868 13.00868 0 0 1 12 12.94934zm-8.5-31a1.5 1.5 0 0 1 0 3h-.6911a10.98831 10.98831 0 0 0 .1911-2v-1zm-1.546-6h-5.75631l1.38431-7.61389a9.14129 9.14129 0 0 1 4.372 7.61389zm-13.54-10h7.17188l.33691.33643c-3.41532 18.78457-.58457 3.21395-1.75779 9.66357h-4.33053c-1.92492-10.588 2.12653 11.69486-1.75683-9.66357zm-1.9978 2.37915 1.38562 7.62085h-5.7569c.33515-4.67035 2.95056-6.80463 4.37128-7.62085zm-5.9162 16.62085a1.5 1.5 0 0 1 0-3h.5v1a10.98831 10.98831 0 0 0 .1911 2zm2.5-2v-5h18v5a9 9 0 0 1 -18 0zm9 11a10.92285 10.92285 0 0 0 3.91687-.73352l.96161 5.17322a11.05018 11.05018 0 0 1 -9.75757.00042l.96179-5.17376a10.9227 10.9227 0 0 0 3.9173.73364zm-8 6.05066v9.94934a2.0026 2.0026 0 0 0 -2 2h-2v-3a1 1 0 0 0 -2 0v8h-6v-4a13.00827 13.00827 0 0 1 12-12.94934zm-12 18.94934h6v7h-6zm12 7v-6h16v6z"/><path d="m33 57h-2a1 1 0 0 0 0 2h2a1 1 0 0 0 0-2z"/><path d="m37 57h-1a1 1 0 0 0 0 2h1a1 1 0 0 0 0-2z"/><path d="m28 57h-1a1 1 0 0 0 0 2h1a1 1 0 0 0 0-2z"/></g></g></svg>