<?xml version="1.0" encoding="iso-8859-1"?>
<!-- Generator: Adobe Illustrator 19.0.0, SVG Export Plug-In . SVG Version: 6.00 Build 0)  -->
<svg version="1.1" id="Capa_1" xmlns="http://www.w3.org/2000/svg" xmlns:xlink="http://www.w3.org/1999/xlink" x="0px" y="0px"
	 viewBox="0 0 512 512" style="enable-background:new 0 0 512 512;" xml:space="preserve">
<path style="fill:#CCDFED;" d="M66.246,275.442v-164.53h138.913c5.563,0,10.545,3.728,12.115,9.064l69.266,235.363l10.429-12.633
	c2.743-3.323,6.524-5.558,10.673-6.404l-65.793-223.559c-4.789-16.274-19.726-27.449-36.691-27.449H58.335
	c-9.78,0-17.707,7.928-17.707,17.707v172.44L66.246,275.442L66.246,275.442z"/>
<path style="fill:#CCCBCA;" d="M303.615,370.05l-44.264,27.491l-40.138-78.751c-1.518-2.978-0.502-6.622,2.337-8.386l20.714-12.865
	c2.839-1.763,6.556-1.059,8.553,1.622L303.615,370.05z"/>
<path style="fill:#FD9727;" d="M296.969,324.536l-13.271,16.076c-3.93,4.761-9.781,7.518-15.954,7.518h-78.426
	c-12.989,0-23.519-10.53-23.519-23.519v-11.117c0-31.051-25.171-56.222-56.222-56.222H28.112c-11.364,0-20.576,9.212-20.576,20.576
	v129.465c0,5.17,4.191,9.361,9.361,9.361h330.875v-98.926h-36.4C305.799,317.749,300.517,320.238,296.969,324.536z"/>
<path style="fill:#FF6D3A;" d="M311.372,317.749c-5.573,0-10.855,2.489-14.404,6.787l-5.054,6.123v38.814
	c0,18.194-14.749,32.943-32.943,32.943H7.536v4.898c0,5.17,4.191,9.361,9.361,9.361h330.875v-98.926L311.372,317.749
	L311.372,317.749z"/>
<rect x="347.77" y="235.97" style="fill:#FFC06C;" width="133.94" height="130.7"/>
<path style="fill:#EDA558;" d="M426.274,235.971v89.567c0,9.379-7.603,16.982-16.982,16.982h-61.52v24.148h133.941V342.52V235.971
	H426.274z"/>
<path style="fill:#FF4C4C;" d="M433.305,281.546h-37.123c-1.636,0-2.963-1.326-2.963-2.963V235.97h43.049v42.613
	C436.268,280.22,434.941,281.546,433.305,281.546z"/>
<path style="fill:#FFC06C;" d="M481.714,235.971H347.772V109.608c0-2.394,1.941-4.334,4.334-4.334H477.38
	c2.394,0,4.334,1.941,4.334,4.334L481.714,235.971L481.714,235.971z"/>
<path style="fill:#EDA558;" d="M477.38,105.274h-51.262v96.504c0,9.379-7.603,16.982-16.982,16.982h-61.364v17.211h133.941V218.76
	V109.608C481.714,107.215,479.773,105.274,477.38,105.274z"/>
<path style="fill:#FF4C4C;" d="M433.305,150.85h-37.123c-1.636,0-2.963-1.326-2.963-2.963v-42.613h43.049v42.613
	C436.268,149.523,434.941,150.85,433.305,150.85z"/>
<circle style="fill:#3D6687;" cx="87.25" cy="406.71" r="58.24"/>
<path style="fill:#0C5177;" d="M87.252,348.471c-10.121,0-19.637,2.586-27.929,7.126c18.06,9.89,30.308,29.068,30.308,51.111
	S77.383,447.93,59.323,457.82c8.292,4.541,17.808,7.126,27.929,7.126c32.164,0,58.237-26.074,58.237-58.237
	S119.416,348.471,87.252,348.471z"/>
<path style="fill:#ACC3D1;" d="M87.252,433.18c-14.597,0-26.472-11.875-26.472-26.472c0-14.596,11.875-26.471,26.472-26.471
	s26.472,11.875,26.472,26.471C113.724,421.305,101.849,433.18,87.252,433.18z"/>
<circle style="fill:#3D6687;" cx="321.34" cy="420.05" r="44.899"/>
<path style="fill:#0C5177;" d="M321.343,375.148c-10.56,0-20.262,3.655-27.929,9.757c10.336,8.226,16.97,20.906,16.97,35.142
	c0,14.237-6.634,26.916-16.97,35.142c7.667,6.102,17.369,9.757,27.929,9.757c24.797,0,44.899-20.102,44.899-44.899
	S346.14,375.148,321.343,375.148z"/>
<path style="fill:#ACC3D1;" d="M321.343,437.678c-9.722,0-17.632-7.909-17.632-17.631c0-9.722,7.91-17.632,17.632-17.632
	s17.631,7.909,17.631,17.632C338.974,429.769,331.065,437.678,321.343,437.678z"/>
<path d="M504.464,359.131H489.25V164.304l0,0c0-4.162-3.374-7.536-7.536-7.536s-7.536,3.374-7.536,7.536v64.131l0,0l0,0h-118.87
	V112.81h30.375v35.077c0,5.789,4.71,10.498,10.499,10.498h37.123c5.788,0,10.498-4.71,10.498-10.498V112.81h30.375v16.296
	c0,4.162,3.374,7.536,7.536,7.536s7.536-3.374,7.536-7.536v-19.497c0-6.545-5.325-11.87-11.87-11.87l0,0H355.308l0,0V47.054
	c0-4.162-3.373-7.536-7.536-7.536c-4.162,0-7.536,3.374-7.536,7.536l0,0v263.159l0,0h-28.864c-1.174,0-2.336,0.087-3.482,0.239
	l-58.812-199.837c-5.693-19.346-23.754-32.857-43.919-32.857H58.335c-13.919,0-25.243,11.324-25.243,25.243v93.022
	c0,4.162,3.374,7.536,7.536,7.536s7.536-3.374,7.536-7.536v-93.022c0-5.609,4.563-10.172,10.172-10.172h146.823
	c13.527,0,25.642,9.063,29.461,22.04l59.416,201.893c-0.048,0.042-0.091,0.089-0.138,0.132c-0.395,0.354-0.779,0.722-1.154,1.101
	c-0.119,0.121-0.238,0.241-0.355,0.365c-0.423,0.445-0.837,0.901-1.231,1.378l-5.337,6.464l-61.319-208.353
	c-2.508-8.521-10.462-14.473-19.344-14.473H66.246c-4.162,0-7.536,3.374-7.536,7.536v138.824H48.164v-18.65
	c0-4.162-3.374-7.536-7.536-7.536s-7.536,3.374-7.536,7.536v18.65h-4.981C12.611,249.736,0,262.347,0,277.848v129.465
	c0,9.317,7.58,16.897,16.897,16.897h6.964c7.684,27.796,33.184,48.272,63.391,48.272s55.706-20.476,63.39-48.272h118.445
	c2.131,26.972,24.745,48.272,52.254,48.272c28.912,0,52.435-23.522,52.435-52.435c0-15.964-7.18-30.274-18.469-39.899v-5.945
	h149.157l0,0c4.162,0,7.536-3.374,7.536-7.536S508.627,359.131,504.464,359.131z M400.754,112.81h27.977v30.504h-27.977V112.81z
	 M245.378,304.477l26.419,35.469c-0.313,0.102-0.63,0.191-0.95,0.27c-0.013,0.003-0.026,0.008-0.039,0.011
	c-0.19,0.046-0.384,0.078-0.576,0.116c-0.249,0.048-0.499,0.092-0.752,0.126c-0.155,0.021-0.311,0.041-0.467,0.056
	c-0.42,0.04-0.843,0.07-1.27,0.07h-28.96l-12.396-24.322L245.378,304.477z M73.782,118.448h131.377c2.208,0,4.262,1.538,4.886,3.656
	l53.375,181.364l-6.559-8.806c-4.299-5.773-12.457-7.321-18.572-3.523l-3.774,2.344l-9.649-16.606l10.044-6.238
	c3.535-2.195,4.622-6.842,2.426-10.377c-2.195-3.535-6.84-4.622-10.377-2.426l-32.521,20.198c-3.535,2.195-4.622,6.842-2.426,10.377
	c1.427,2.298,3.889,3.561,6.409,3.561c1.357,0,2.731-0.366,3.969-1.135l9.668-6.005l9.649,16.606l-4.13,2.565
	c-6.217,3.861-8.399,11.69-5.075,18.209l9.368,18.381h-32.55c-8.813,0-15.983-7.17-15.983-15.983v-11.117
	c0-35.156-28.601-63.758-63.758-63.758H73.782V118.448z M137.894,409.042c-0.021,0.435-0.054,0.872-0.086,1.309
	c-0.021,0.3-0.042,0.599-0.068,0.897c-0.053,0.575-0.115,1.152-0.188,1.728c-0.017,0.138-0.035,0.277-0.053,0.414
	c-0.085,0.637-0.18,1.273-0.289,1.91c-4.095,23.877-24.931,42.109-49.958,42.109c-25.021,0-45.853-18.223-49.956-42.091
	c-0.112-0.651-0.209-1.303-0.296-1.955c-0.016-0.118-0.03-0.236-0.045-0.354c-0.075-0.595-0.139-1.189-0.193-1.782
	c-0.024-0.272-0.043-0.546-0.063-0.82c-0.035-0.461-0.069-0.922-0.091-1.381c-0.035-0.769-0.059-1.542-0.059-2.319
	c0-27.957,22.745-50.702,50.702-50.702c1.747,0,3.474,0.089,5.177,0.262c25.535,2.601,45.525,24.229,45.525,50.439
	C137.954,407.491,137.93,408.268,137.894,409.042z M152.979,409.139c0.031-0.813,0.047-1.623,0.047-2.43
	c0-31.734-22.591-58.291-52.535-64.434c-4.278-0.878-8.705-1.339-13.239-1.339c-36.267,0-65.773,29.505-65.773,65.773
	c0,0.807,0.016,1.618,0.047,2.43h-4.628c-1.007,0-1.826-0.819-1.826-1.826V277.848c0-7.19,5.85-13.04,13.04-13.04h81.465
	c26.846,0,48.686,21.841,48.686,48.686v11.117c0,17.124,13.931,31.054,31.054,31.054h78.426c0.493,0,0.985-0.015,1.476-0.041
	c0.313-0.016,0.624-0.046,0.936-0.072c0.159-0.014,0.319-0.023,0.478-0.04c0.44-0.045,0.877-0.103,1.313-0.168
	c0.014-0.002,0.028-0.004,0.042-0.006c6.062-0.915,11.649-3.776,15.954-8.198c0.011-0.012,0.024-0.021,0.035-0.033
	c0.009-0.009,0.016-0.017,0.024-0.026c0.003-0.003,0.005-0.005,0.008-0.008c0.004-0.004,0.007-0.008,0.011-0.012
	c0.013-0.014,0.025-0.027,0.038-0.041c0.213-0.221,0.424-0.444,0.63-0.672c0.292-0.32,0.568-0.634,0.82-0.94l13.272-16.077
	c0.252-0.305,0.52-0.593,0.799-0.867c0.124-0.121,0.258-0.231,0.388-0.346c0.155-0.138,0.307-0.278,0.469-0.407
	c0.197-0.156,0.404-0.301,0.613-0.444c0.099-0.069,0.196-0.141,0.297-0.206c0.245-0.157,0.499-0.302,0.758-0.441
	c1.6-0.86,3.398-1.339,5.268-1.339h28.864v41.383v4.451c-0.291-0.113-0.587-0.21-0.88-0.318c-0.003-0.001-0.006-0.002-0.009-0.003
	c-0.779-0.285-1.564-0.551-2.355-0.799c-0.055-0.017-0.109-0.034-0.164-0.051c-0.738-0.228-1.481-0.439-2.229-0.634
	c-0.108-0.028-0.216-0.056-0.324-0.084c-0.694-0.176-1.393-0.337-2.095-0.485c-0.16-0.034-0.319-0.068-0.48-0.101
	c-0.653-0.131-1.311-0.247-1.971-0.353c-0.205-0.033-0.409-0.069-0.615-0.1c-0.625-0.093-1.253-0.17-1.883-0.24
	c-0.236-0.026-0.47-0.058-0.706-0.081c-0.631-0.062-1.265-0.106-1.901-0.145c-0.231-0.014-0.46-0.036-0.691-0.047
	c-0.861-0.042-1.725-0.066-2.592-0.066c-0.839,0-1.672,0.024-2.502,0.063c-0.343,0.016-0.681,0.045-1.022,0.068
	c-0.468,0.032-0.936,0.063-1.401,0.107c-0.454,0.043-0.905,0.097-1.356,0.151c-0.323,0.039-0.646,0.078-0.967,0.123
	c-0.547,0.076-1.09,0.162-1.631,0.255c-0.181,0.031-0.362,0.064-0.543,0.097c-20.873,3.805-37.472,19.997-41.863,40.662H152.979
	V409.139z M358.706,420.047c0,20.602-16.761,37.363-37.363,37.363s-37.363-16.761-37.363-37.363c0-0.934,0.046-1.857,0.114-2.774
	c0.001-0.013,0.004-0.026,0.005-0.04c1.305-17.547,14.849-31.65,31.838-34.154c0.087-0.013,0.176-0.021,0.264-0.034
	c0.494-0.069,0.989-0.132,1.488-0.182c0.243-0.024,0.489-0.037,0.734-0.056c0.356-0.028,0.711-0.06,1.069-0.078
	c0.614-0.03,1.231-0.047,1.852-0.047c0.588,0,1.172,0.017,1.753,0.044c0.16,0.007,0.32,0.019,0.48,0.028
	c0.446,0.026,0.89,0.06,1.332,0.102c0.145,0.014,0.29,0.027,0.434,0.043c0.559,0.06,1.116,0.128,1.667,0.213
	c0.007,0.001,0.013,0.002,0.02,0.003c1.234,0.189,2.448,0.439,3.639,0.746c0.001,0,0.001,0,0.002,0
	C346.774,388.016,358.706,402.664,358.706,420.047z M400.754,243.506h27.977v30.504h-27.977V243.506z M474.178,359.131h-118.87l0,0
	V243.506h30.375v35.077c0,5.789,4.71,10.498,10.499,10.498h37.123c5.788,0,10.498-4.71,10.498-10.498v-35.077h30.375
	L474.178,359.131L474.178,359.131z"/>
<path d="M87.252,372.702c-18.752,0-34.007,15.255-34.007,34.007c0,18.752,15.255,34.008,34.007,34.008s34.008-15.256,34.008-34.008
	C121.26,387.957,106.004,372.702,87.252,372.702z M87.252,425.645c-10.441,0-18.936-8.495-18.936-18.936s8.495-18.935,18.936-18.935
	c10.442,0,18.936,8.494,18.936,18.935S97.694,425.645,87.252,425.645z"/>
<path d="M321.343,394.88c-13.877,0-25.168,11.29-25.168,25.168c0,13.877,11.291,25.167,25.168,25.167
	c13.877,0,25.167-11.29,25.167-25.167C346.51,406.17,335.22,394.88,321.343,394.88z M321.343,430.143
	c-5.567,0-10.097-4.529-10.097-10.095c0-5.567,4.529-10.096,10.097-10.096c5.566,0,10.096,4.529,10.096,10.096
	C331.439,425.614,326.91,430.143,321.343,430.143z"/>
<g>
</g>
<g>
</g>
<g>
</g>
<g>
</g>
<g>
</g>
<g>
</g>
<g>
</g>
<g>
</g>
<g>
</g>
<g>
</g>
<g>
</g>
<g>
</g>
<g>
</g>
<g>
</g>
<g>
</g>
</svg>
