<svg id="Flat" height="512" viewBox="0 0 64 64" width="512" xmlns="http://www.w3.org/2000/svg"><g><path d="m31.12 37.12-7.995 8.005-4.25-4.25 8.005-7.995c1.16999 1.62995 2.60999 3.06995 4.24 4.24z" fill="#a8b7d4"/><path d="m29.85999 38.38-1.64001 1.63995c-1.62994-1.16998-3.06995-2.60999-4.23999-4.23999l1.64001-1.63995c1.16998 1.62995 2.60998 3.06995 4.23999 4.23999z" fill="#8394b2"/><path d="m24.56 43.69-4.25-4.25c-.77997-.78003-2.03998-.78003-2.82001 0l-12.02997 12.01996c-.98004.98004-1.46002 2.26001-1.46002 3.54004 0 1.27997.47998 2.56 1.46002 3.53998 1.95996 1.95001 5.12 1.95001 7.07996 0l12.02002-12.02997c.78003-.78003.78003-2.04004 0-2.82001z" fill="#54bcf9"/><circle cx="41" cy="23" fill="#393d48" r="19"/><path d="m42.40741 40.59259c-10.49341 0-19-8.50659-19-19 0-4.88831 1.86194-9.33087 4.8949-12.69775-3.86054 3.47766-6.30231 8.50006-6.30231 14.10516 0 10.49341 8.50659 19 19 19 5.6051 0 10.6275-2.44177 14.10516-6.30231-3.36688 3.03296-7.80944 4.8949-12.69775 4.8949z" fill="#222430"/><circle cx="41" cy="23" fill="#edf4fa" r="15"/><path d="m42.48151 36.51849c-8.28003 0-15-6.72003-15-15 0-3.76306 1.39795-7.1947 3.68958-9.82892-3.16206 2.75074-5.17109 6.79346-5.17109 11.31043 0 8.27997 6.71997 15 15 15 4.51697 0 8.55969-2.00903 11.31042-5.17108-2.63421 2.29156-6.06585 3.68957-9.82891 3.68957z" fill="#c1cfe8"/><path d="m13.25 57.82996-.71002.71002c-1.95996 1.95001-5.12 1.95001-7.07996 0-.98004-.97998-1.46002-2.26001-1.46002-3.53998 0-1.28003.47998-2.56 1.46002-3.54004l.70996-.70996z" fill="#a8b7d4"/><g><path d="m24.56 46.51001-11.31 11.31995-1.51001-1.50995c.28003-.17999.54999-.39001.79999-.64001l12-12.01001.02002.02001c.78003.77997.78003 2.03998 0 2.82001z" fill="#1e8ce6"/><path d="m13.25 57.82996-.71002.71002c-1.95996 1.95001-5.12 1.95001-7.07996 0-.98004-.97998-1.46002-2.26001-1.46002-3.53998 0-.48004.09003-.96002.22998-1.42999.23004.76996.62 1.5 1.23004 2.10999 1.70996 1.71002 4.33997 1.92999 6.27997.64001z" fill="#8394b2"/></g><g><path d="m35 23c0 2.4908 1.52094 4.63551 3.68502 5.53021.18787.07767.31498.25266.31498.45595v4.21158c0 .31954-.29874.56789-.60924.4924-4.81542-1.17059-8.39076-5.50652-8.39076-10.69014 0-5.18368 3.57534-9.51956 8.39076-10.69015.3105-.07548.60924.17287.60924.49241v4.21152c0 .20329-.12711.37828-.31498.45595-2.16407.89471-3.68502 3.03947-3.68502 5.53027z" fill="#39a30b"/><path d="m51.68962 25.61152c-.96771 3.97617-4.10194 7.11039-8.0781 8.0781-.31112.07572-.61152-.17373-.61152-.49393v-4.20716c0-.20448.12798-.38084.31692-.45904 1.44706-.59894 2.61365-1.76553 3.21263-3.21259.0782-.18892.25456-.3169.45904-.3169h4.2071c.3202 0 .56965.3004.49393.61152z" fill="#f9db2c"/><path d="m51.19569 21h-7.69569c-.27614 0-.5-.22386-.5-.5v-7.69569c0-.32019.3004-.56964.61151-.49392 3.97618.9677 7.1104 4.10188 8.07811 8.0781.07572.31111-.17373.61151-.49393.61151z" fill="#ff1e36"/><path d="m39 31.65997v1.53777c0 .31954-.29874.56789-.60924.4924-4.81542-1.17059-8.39076-5.50652-8.39076-10.69014 0-3.48004 1.60999-6.57001 4.12-8.58002-1.52002 1.88-2.41998 4.27002-2.41998 6.88-.00001 4.77998 3.04998 8.84998 7.29998 10.35999z" fill="#087f2b"/><path d="m49.58002 29.88c-1.48515 1.86326-3.57433 3.22454-5.96943 3.80915-.31087.07588-.61059-.17283-.61059-.49282v-4.20469c0-.20603.12979-.38333.32035-.46165.497-.20426.95876-.47989 1.37966-.81002v3.77883c0 .31919.29837.56786.60868.49309 1.59-.38311 3.03708-1.1174 4.27133-2.11189z" fill="#fcb906"/><path d="m51.20021 21h-7.70021c-.27614 0-.5-.22386-.5-.5v-7.70021c0-.32916.31125-.56247.63089-.4839.3639.08945.71854.19663 1.06912.32412v5.65997c0 .55228.44772 1 1 1h5.65997c.12749.35058.23468.70522.32412 1.06912.07858.31965-.15473.6309-.48389.6309z" fill="#a51423"/></g></g></svg>