<svg xmlns="http://www.w3.org/2000/svg" version="1.1" xmlns:xlink="http://www.w3.org/1999/xlink" width="512" height="512" x="0" y="0" viewBox="0 0 512 512" style="enable-background:new 0 0 512 512" xml:space="preserve" class=""><g><path fill="#ffe07d" d="M420.268 374.234H22.511c-8.284 0-15-6.716-15-15V89.981c0-8.284 6.716-15 15-15h397.757c8.284 0 15 6.716 15 15v269.253c0 8.284-6.715 15-15 15z" opacity="1" data-original="#ffe07d" class=""></path><path fill="#ffd064" d="M420.246 74.981H393.03v241.992c0 8.297-6.726 15.022-15.022 15.022H7.511v27.216c0 8.297 6.726 15.022 15.022 15.022h397.713c8.296 0 15.022-6.726 15.022-15.022V90.003c0-8.296-6.725-15.022-15.022-15.022z" opacity="1" data-original="#ffd064" class=""></path><path fill="#ffd064" d="M420.268 374.234H314.014V74.981h106.254c8.284 0 15 6.716 15 15v269.253c0 8.284-6.715 15-15 15z" opacity="1" data-original="#ffd064" class=""></path><path fill="#f4fbff" d="M41.517 275.519V120.873a7 7 0 0 1 7-7h78.652a7 7 0 0 1 7 7v154.646a7 7 0 0 1-7 7H48.517a7 7 0 0 1-7-7z" opacity="1" data-original="#f4fbff" class=""></path><path fill="#e4f6ff" d="M127.17 113.873h-9.312v145.334a7 7 0 0 1-7 7h-69.34v9.312a7 7 0 0 0 7 7h78.652a7 7 0 0 0 7-7V120.873a7 7 0 0 0-7-7z" opacity="1" data-original="#e4f6ff"></path><path fill="#ffc250" d="M420.246 74.981H393.03v241.992c0 8.297-6.726 15.022-15.022 15.022h-63.994v42.238h106.232c8.296 0 15.022-6.726 15.022-15.022V90.003c0-8.296-6.725-15.022-15.022-15.022z" opacity="1" data-original="#ffc250" class=""></path><path fill="#a93333" d="M183.459 374.234v-70.366c0-.802.479-1.527 1.217-1.842l5.773-2.464a7.01 7.01 0 0 1 5.503 0l8.579 3.661a7.01 7.01 0 0 0 5.503 0l8.577-3.66a7.01 7.01 0 0 1 5.503 0l8.577 3.66a7.01 7.01 0 0 0 5.503 0l8.579-3.661a7.01 7.01 0 0 1 5.503 0l5.829 2.487a2.003 2.003 0 0 1 1.217 1.842v70.344h-75.863z" opacity="1" data-original="#365e7d" class=""></path><path fill="#7d3636" d="M242.045 374.234V303.89c0-.783-.461-1.487-1.169-1.813l5.896-2.516a7.01 7.01 0 0 1 5.503 0l5.829 2.487a2.003 2.003 0 0 1 1.217 1.842v70.344z" opacity="1" data-original="#2b4d66" class=""></path><circle cx="396.636" cy="360.56" r="107.853" fill="#a93333" opacity="1" data-original="#365e7d" class=""></circle><path fill="#7d3636" d="M461.483 274.376c13.602 18.049 21.669 40.505 21.669 64.847 0 59.565-48.287 107.853-107.853 107.853-24.342 0-46.798-8.067-64.847-21.669 19.683 26.118 50.96 43.006 86.184 43.006 59.566 0 107.853-48.287 107.853-107.853 0-35.224-16.888-66.501-43.006-86.184z" opacity="1" data-original="#2b4d66" class=""></path><path fill="#a93333" d="m285.352 207.449-.039.039c-7.307 7.307-19.154 7.307-26.46 0l-46.299-46.299 26.499-26.499 46.299 46.299c7.307 7.306 7.307 19.153 0 26.46z" opacity="1" data-original="#365e7d" class=""></path><path fill="#7d3636" d="m285.332 180.969-46.28-46.279-12.434 12.434 39.729 39.729c6.985 6.985 7.285 18.102.937 25.463 6.238 1.647 13.157.044 18.048-4.848 7.318-7.317 7.318-19.182 0-26.499z" opacity="1" data-original="#2b4d66" class=""></path><circle cx="188.539" cy="110.675" r="67.097" fill="#cbe2ff" opacity="1" data-original="#cbe2ff"></circle><path fill="#bed8fb" d="M141.095 158.12c26.203 26.203 68.686 26.203 94.889 0 22.573-22.573 25.681-57.218 9.363-83.139H131.731c-16.317 25.92-13.209 60.566 9.364 83.139z" opacity="1" data-original="#bed8fb" class=""></path><path fill="#bed8fb" d="M235.984 63.231a67.004 67.004 0 0 0-17.053-12.377c12.803 25.191 8.688 56.771-12.377 77.836s-52.645 25.18-77.836 12.377a67.002 67.002 0 0 0 12.377 17.054c26.203 26.203 68.686 26.203 94.889 0 26.203-26.204 26.203-68.687 0-94.89z" opacity="1" data-original="#bed8fb" class=""></path><path fill="#9dc6fb" d="M206.553 128.69c-21.065 21.065-52.645 25.18-77.836 12.377a67.002 67.002 0 0 0 12.377 17.054c26.203 26.203 68.686 26.203 94.889 0 22.573-22.573 25.681-57.218 9.363-83.139H225.89c1.796 19.193-4.639 39.01-19.337 53.708z" opacity="1" data-original="#9dc6fb" class=""></path><path d="M105.485 138.823H68.174a7.511 7.511 0 0 0 0 15.022h37.311a7.511 7.511 0 0 0 0-15.022zM105.485 169.193H68.174a7.511 7.511 0 0 0 0 15.022h37.311a7.511 7.511 0 0 0 0-15.022zM105.485 193.967H68.174a7.511 7.511 0 0 0 0 15.022h37.311a7.511 7.511 0 0 0 0-15.022zM105.485 241.412H68.174a7.511 7.511 0 0 0 0 15.022h37.311a7.511 7.511 0 0 0 0-15.022z" fill="#000000" opacity="1" data-original="#000000" class=""></path><path d="M442.78 254.837V90.003c0-12.425-10.108-22.533-22.533-22.533H249.348a74.78 74.78 0 0 0-8.053-9.55 7.511 7.511 0 0 0-10.622 0c-2.602 2.602-2.891 6.635-.876 9.561h-82.293c15.129-14.37 36.831-19.822 57.029-14.217a7.512 7.512 0 0 0 4.016-14.476c-25.897-7.184-53.779.146-72.764 19.131a75.5 75.5 0 0 0-8.065 9.55H22.533C10.108 67.47 0 77.578 0 90.003v269.208c0 12.425 10.108 22.533 22.533 22.533H55.36a7.511 7.511 0 0 0 0-15.022H22.533c-4.142 0-7.511-3.369-7.511-7.511V90.003c0-4.142 3.369-7.511 7.511-7.511h96.892a74.262 74.262 0 0 0-5.36 23.87H48.528c-8.007 0-14.521 6.515-14.521 14.521v154.626c0 8.007 6.515 14.521 14.521 14.521h78.631c8.007 0 14.521-6.514 14.521-14.521V168.73c13.23 10.72 29.594 16.554 46.858 16.554 10.817 0 21.275-2.304 30.837-6.649l34.145 34.145c5.117 5.117 11.839 7.676 18.561 7.676s13.444-2.558 18.561-7.676c4.958-4.958 7.689-11.55 7.689-18.561s-2.731-13.603-7.689-18.561l-34.168-34.168c8.437-18.656 8.825-40.093 1.141-58.998h48.887v206.149c-15.78 19.736-25.231 44.743-25.231 71.918 0 2.068.057 4.122.165 6.163H266.83V303.89a9.5 9.5 0 0 0-5.781-8.751l-5.828-2.487a14.586 14.586 0 0 0-11.4 0l-8.382 3.577-8.381-3.577a14.594 14.594 0 0 0-11.4 0l-8.38 3.576-8.382-3.577a14.586 14.586 0 0 0-11.4 0l-5.773 2.464a9.501 9.501 0 0 0-5.78 8.751v62.855H90.287a7.511 7.511 0 0 0 0 15.022H283.23c9.977 53.527 57.031 94.178 113.407 94.178 18.543 0 36.977-4.506 53.31-13.031a7.51 7.51 0 0 0 3.183-10.134 7.51 7.51 0 0 0-10.134-3.183c-14.399 7.516-29.997 11.326-46.359 11.326-55.328 0-100.342-45.013-100.342-100.342s45.013-100.342 100.342-100.342 100.342 45.013 100.342 100.342c0 26.579-10.288 51.627-28.969 70.53a7.51 7.51 0 0 0 .063 10.622 7.51 7.51 0 0 0 10.622-.063C500.172 419.916 512 391.118 512 360.56c0-47.214-28.513-87.886-69.22-105.723zm-316.122 20.171h-77.63V121.384h65.668a73.786 73.786 0 0 0 11.961 30.993v122.631zm61.881-104.747c-15.916 0-30.879-6.198-42.133-17.453s-17.453-26.217-17.453-42.133c0-10.003 2.452-19.628 7.065-28.195H241.06c4.613 8.566 7.065 18.191 7.065 28.195 0 15.916-6.198 30.879-17.452 42.133-11.255 11.255-26.218 17.453-42.134 17.453zm91.482 16.019c2.121 2.12 3.289 4.939 3.289 7.938s-1.168 5.818-3.289 7.939c-4.378 4.378-11.499 4.378-15.877 0l-31.38-31.38a75.516 75.516 0 0 0 8.531-7.347 74.792 74.792 0 0 0 7.34-8.537zM251.81 366.723h-60.84v-57.744a2.23 2.23 0 0 1 3.106-2.051l7.506 3.203a14.519 14.519 0 0 0 11.399 0l8.38-3.576 8.382 3.577a14.519 14.519 0 0 0 11.399 0l7.507-3.203a2.228 2.228 0 0 1 1.751 0l.056.024a2.23 2.23 0 0 1 1.355 2.052v57.718zm175.947-117.259a115.081 115.081 0 0 0-31.121-4.269c-28.662 0-54.913 10.51-75.111 27.874V82.492h98.721c4.141 0 7.511 3.369 7.511 7.511z" fill="#000000" opacity="1" data-original="#000000" class=""></path><circle cx="396.636" cy="415.17" r="8.042" transform="rotate(-45 396.59 415.274)" fill="#000000" opacity="1" data-original="#000000" class=""></circle><path d="M427.405 333.725c-.832-16.037-14.07-28.852-30.137-29.176-15.609-.32-28.993 11.085-31.147 26.517a31.143 31.143 0 0 0-.297 4.288 7.511 7.511 0 0 0 15.022 0c0-.74.051-1.485.153-2.212 1.102-7.9 7.965-13.782 15.966-13.574 8.23.166 15.011 6.726 15.438 14.935.227 4.383-1.306 8.545-4.318 11.717-3.014 3.175-7.08 4.923-11.45 4.923a7.511 7.511 0 0 0-7.511 7.511v24.364a7.511 7.511 0 0 0 15.022 0v-17.792a30.964 30.964 0 0 0 14.832-8.662c5.878-6.189 8.87-14.301 8.427-22.839z" fill="#000000" opacity="1" data-original="#000000" class=""></path></g></svg>