<svg xmlns="http://www.w3.org/2000/svg" version="1.1" xmlns:xlink="http://www.w3.org/1999/xlink" width="512" height="512" x="0" y="0" viewBox="0 0 64 64" style="enable-background:new 0 0 512 512" xml:space="preserve" class=""><g><path fill="#d3a06c" d="M40 26h16v36H40zM24 24h16v38H24zM2 34h16v28H2z" opacity="1" data-original="#d3a06c" class=""></path><path fill="#d3a06c" d="M18 48h16v14H18z" opacity="1" data-original="#d3a06c" class=""></path><path fill="#739acf" d="M61.98 13.99v4h-49v-4.48l24-11.52z" opacity="1" data-original="#aab2bd" class=""></path><path fill="#e6e9ed" d="M59.98 17.99v44h-4v-36h-16v-2h-16v24h-6v-14h-8c.62 0 1.2-.32 1.53-.85l4.47-7.15h-3v-8z" opacity="1" data-original="#e6e9ed" class=""></path><path fill="#ffeaa7" d="m15.98 25.99-4.47 7.15a1.803 1.803 0 0 1-3.06 0l-4.47-7.15h3v-20h6v20z" opacity="1" data-original="#ffeaa7" class=""></path><path fill="#b27946" d="M45.98 49.99h4v4h-4zM45.98 37.99h4v4h-4zM45.98 25.99h4v4h-4zM29.98 23.99h4v4h-4zM29.98 35.99h4v4h-4zM23.98 47.99h4v4h-4zM7.98 47.99h4v4h-4zM11.98 33.99v4h-4v-4h2z" opacity="1" data-original="#b27946" class=""></path><path d="M11.975 5.986h2v2h-2z" fill="#000000" opacity="1" data-original="#000000" class=""></path><path d="m62.975 13.356-26-12.48-23 11.04v-1.93h-2v17h2.196l-3.515 5.623c-.294.472-1.068.472-1.363 0l-3.514-5.622h2.196v-21h-2v19H2.171l5 8H.975v30h60v-44h2zm-54 21.629h2v2h-2zm-6 0h4v4h6v-4h4v12h-14zm6 14h2v2h-2zm-6 0h4v4h6v-4h4v12h-14zm16 0h4v4h6v-4h4v12h-14zm12-23.999h2v2h-2zm4 4v-4h4v10h-14v-10h4v4zm12-2h2v2h-2zm4 4v-4h4v10h-14v-10h4v4zm-6 19.999v4h6v-4h4v10h-14v-10zm2 0h2v2h-2zm-6-2v-10h4v4h6v-4h4v10zm6-10h2v2h-2zm-16-2h2v2h-2zm-2 0v4h6v-4h4v24h-4v-14h-10v-10zm-4 12h2v2h-2zm34 12h-2v-36h-16v-2h-18v24h-4v-14H12.78l5-8h-3.804v-6h45v42zm2-43.999h-47v-2.851l23-11.04 24 11.52z" fill="#000000" opacity="1" data-original="#000000" class=""></path></g></svg>