<svg xmlns="http://www.w3.org/2000/svg" version="1.1" xmlns:xlink="http://www.w3.org/1999/xlink" width="512" height="512" x="0" y="0" viewBox="0 0 512 512" style="enable-background:new 0 0 512 512" xml:space="preserve" class=""><g><path d="m501.419 295.999-39.438-79.997-14.469-28.939a20.006 20.006 0 0 0-17.889-11.06h-93.636v199.992H481.98c11.05 0 19.999-8.95 19.999-19.999v-55.278c0-1.59-.19-3.179-.56-4.719z" style="" fill="#c33d3d" data-original="#85e374" opacity="1"></path><path d="M501.419 295.999H375.985v-79.997h85.996l37.888 75.777c.67 1.34 1.19 2.76 1.55 4.22zM480.97 375.995a49.16 49.16 0 0 1 1.01 10c0 27.609-22.389 49.998-49.998 49.998-27.609 0-49.998-22.389-49.998-49.998 0-3.43.34-6.77 1.01-10 4.63-22.819 24.809-39.998 48.988-39.998s44.358 17.179 48.988 39.998z" style="" fill="#57555c" data-original="#57555c"></path><path d="M315.987 76.008H29.999C18.949 76.008 10 84.957 10 96.007v259.989c0 11.05 8.95 19.999 19.999 19.999h305.987V96.007c0-11.05-8.949-19.999-19.999-19.999z" style="" fill="#f0e6de" data-original="#f0e6de" class=""></path><path d="M168.983 375.995a49.16 49.16 0 0 1 1.01 10c0 27.609-22.389 49.998-49.998 49.998s-49.998-22.389-49.998-49.998c0-3.43.34-6.77 1.01-10 4.63-22.819 24.809-39.998 48.988-39.998s44.358 17.179 48.988 39.998zM10 295.998h39.998v39.998H10z" style="" fill="#57555c" data-original="#57555c"></path><path d="M109.995 146.005c5.52 0 10-4.48 10-10s-4.48-10-10-10-10 4.48-10 10c.001 5.52 4.481 10 10 10z" fill="#000000" opacity="1" data-original="#000000" class=""></path><path d="m470.925 211.53-14.469-28.939c-5.116-10.232-15.397-16.587-26.833-16.587h-83.637V96.007c0-16.541-13.457-29.999-29.999-29.999H29.999C13.457 66.008 0 79.465 0 96.007v259.989c0 16.541 13.457 29.999 29.999 29.999h29.999c0 15.354 5.805 29.375 15.326 39.998H10c-5.523 0-10 4.478-10 10s4.477 10 10 10h491.98c5.523 0 10-4.478 10-10s-4.477-10-10-10h-25.326c9.522-10.624 15.326-24.644 15.326-39.998 0-.57-.027-1.137-.043-1.706 11.661-4.116 20.042-15.241 20.042-28.293v-55.278c0-11.669 2.311-.775-41.054-89.188zm-15.124 14.471 29.999 59.998h-99.816v-59.998h69.817zm-68.49 199.992H164.666c9.522-10.624 15.326-24.644 15.326-39.998h191.992c.001 15.354 5.805 29.375 15.327 39.998zM19.999 305.998h19.999v19.999H19.999v-19.999zm10 59.998c-5.514 0-10-4.486-10-10v-10h29.999c5.523 0 10-4.478 10-10v-39.998c0-5.522-4.477-10-10-10H19.999V96.007c0-5.514 4.486-10 10-10h285.988c5.514 0 10 4.486 10 10v269.989H176.558c-8.351-23.598-30.953-39.998-56.563-39.998-25.621 0-48.232 16.413-56.568 39.998H29.999zm49.998 19.999c0-2.724.27-5.405.81-8.012 3.761-18.534 20.242-31.987 39.188-31.987s35.428 13.452 39.188 31.987l.009.042c.532 2.564.801 5.246.801 7.97 0 22.055-17.943 39.998-39.998 39.998s-39.998-17.944-39.998-39.998zm311.987 0c0-2.724.27-5.405.81-8.012 3.761-18.534 20.242-31.987 39.188-31.987s35.428 13.452 39.188 31.987l.009.042c.532 2.564.801 5.246.801 7.97 0 22.055-17.943 39.998-39.998 39.998-22.055 0-39.998-17.944-39.998-39.998zm95.852-21.91c-8.871-22.569-30.941-38.087-55.854-38.087-25.621 0-48.232 16.413-56.568 39.998h-29.429V186.003h83.637a9.949 9.949 0 0 1 8.945 5.531l7.234 14.468h-69.816c-5.523 0-10 4.478-10 10v79.997c0 5.522 4.477 10 10 10H491.98v49.998c0 3.325-1.639 6.268-4.144 8.088z" fill="#000000" opacity="1" data-original="#000000" class=""></path><path d="M149.994 146.005h125.995c5.523 0 10-4.478 10-10s-4.477-10-10-10H149.994c-5.523 0-10 4.478-10 10s4.477 10 10 10zM275.989 166.004h-85.996c-5.523 0-10 4.478-10 10s4.477 10 10 10h85.996c5.523 0 10-4.478 10-10s-4.478-10-10-10zM431.982 365.996c-11.028 0-19.999 8.972-19.999 19.999s8.972 19.999 19.999 19.999c11.028 0 19.999-8.972 19.999-19.999s-8.971-19.999-19.999-19.999zM119.995 365.996c-11.028 0-19.999 8.972-19.999 19.999s8.972 19.999 19.999 19.999 19.999-8.972 19.999-19.999-8.971-19.999-19.999-19.999z" fill="#000000" opacity="1" data-original="#000000" class=""></path></g></svg>